<svg width="563" height="563" viewBox="0 0 563 563" fill="none" xmlns="http://www.w3.org/2000/svg">
<path d="M562.5 0C547.9 48 533.3 95.9 512.9 137.4C492.5 178.9 466.2 213.9 450.3 260C434.5 306.1 429 363.2 397.7 397.7C366.4 432.2 309.3 444 260 450.3C210.7 456.6 169.4 457.5 127.3 475.2C85.3 493 42.7 527.7 0 562.5V0H562.5Z" fill="#F9DDC1"/>
<path d="M450 0C438.3 38.4 426.7 76.8 410.3 109.9C394 143.1 373 171.1 360.3 208C347.6 244.9 343.2 290.6 318.2 318.2C293.1 345.8 247.4 355.2 208 360.3C168.6 365.3 135.5 366 101.9 380.2C68.3 394.4 34.1 422.2 0 450V0H450Z" fill="#EEB287"/>
<path d="M337.5 0C328.7 28.8 320 57.6 307.7 82.5C295.5 107.4 279.7 128.4 270.2 156C260.7 183.6 257.4 217.9 238.6 238.6C219.9 259.3 185.6 266.4 156 270.2C126.4 274 101.6 274.5 76.4 285.1C51.2 295.8 25.6 316.6 0 337.5V0H337.5Z" fill="#E48358"/>
<path d="M225 0C219.2 19.2 213.3 38.4 205.2 55C197 71.6 186.5 85.6 180.1 104C173.8 122.4 171.6 145.3 159.1 159.1C146.6 172.9 123.7 177.6 104 180.1C84.3 182.7 67.7 183 50.9 190.1C34.1 197.2 17.1 211.1 0 225V0H225Z" fill="#D94A37"/>
<path d="M112.5 0C109.6 9.6 106.7 19.2 102.6 27.5C98.5 35.8 93.2 42.8 90.1 52C86.9 61.2 85.8 72.6 79.5 79.5C73.3 86.4 61.9 88.8 52 90.1C42.1 91.3 33.9 91.5 25.5 95C17.1 98.6 8.5 105.5 0 112.5V0H112.5Z" fill="#D21F2D"/>
</svg>
