<svg width="563" height="563" viewBox="0 0 563 563" fill="none" xmlns="http://www.w3.org/2000/svg">
<path d="M0.5 563C1.3 513.2 2.10001 463.5 19.7 417.4C37.3 371.4 71.8 329 115.3 304.5C158.7 280 211.2 273.4 239.9 239.9C268.5 206.3 273.3 145.6 300 107.5C326.7 69.3 375.2 53.6 422.7 39.5C470.2 25.4 516.6 13 563 0.5V563H0.5Z" fill="#F9DDC1"/>
<path d="M113 563C113.6 523.2 114.3 483.4 128.4 446.5C142.5 409.7 170 375.8 204.8 356.2C239.6 336.6 281.6 331.4 304.5 304.5C327.4 277.6 331.3 229.1 352.6 198.6C373.9 168 412.8 155.4 450.8 144.2C488.8 132.9 525.9 123 563 113V563H113Z" fill="#EEB287"/>
<path d="M225.5 563C226 533.1 226.4 503.3 237 475.7C247.6 448 268.3 422.6 294.4 407.9C320.4 393.2 351.9 389.3 369.1 369.1C386.3 349 389.2 312.6 405.2 289.7C421.2 266.8 450.3 257.3 478.8 248.9C507.3 240.4 535.2 233 563 225.5V563H225.5Z" fill="#E48358"/>
<path d="M338 563C338.3 543.1 338.6 523.2 345.7 504.8C352.7 486.3 366.5 469.4 383.9 459.6C401.3 449.8 422.3 447.2 433.7 433.7C445.2 420.3 447.1 396.1 457.8 380.8C468.5 365.5 487.9 359.2 506.9 353.6C525.9 348 544.4 343 563 338V563H338Z" fill="#D94A37"/>
<path d="M450.5 563C450.7 553 450.8 543.1 454.3 533.9C457.9 524.7 464.8 516.2 473.5 511.3C482.1 506.4 492.6 505.1 498.4 498.4C504.1 491.7 505.1 479.5 510.4 471.9C515.7 464.3 525.4 461.1 534.9 458.3C544.4 455.5 553.7 453 563 450.5V563H450.5Z" fill="#D21F2D"/>
</svg>
